<?xml version="1.0" encoding="UTF-8" standalone="no"?>
<!-- Created with Inkscape (http://www.inkscape.org/) -->
<svg xmlns:inkscape="http://www.inkscape.org/namespaces/inkscape" xmlns:sodipodi="http://sodipodi.sourceforge.net/DTD/sodipodi-0.dtd" xmlns:xlink="http://www.w3.org/1999/xlink" xmlns="http://www.w3.org/2000/svg" xmlns:svg="http://www.w3.org/2000/svg" width="1024" height="1024" viewBox="0 0 270.93333 270.93333" version="1.1" id="svg1" inkscape:version="1.3.2 (091e20ef0f, 2023-11-25)" sodipodi:docname="auxolotl-logo.svg" inkscape:export-filename="auxolotl-cuddle3.svg" inkscape:export-xdpi="96" inkscape:export-ydpi="96">
  
  <defs id="defs1">
    <linearGradient id="linearGradient5" inkscape:collect="always">
      <stop style="stop-color:#f0a3d5;stop-opacity:1;" offset="0.49842149" id="stop4"/>
      <stop style="stop-color:#89c5f1;stop-opacity:1;" offset="1" id="stop5"/>
    </linearGradient>
    <linearGradient inkscape:collect="always" xlink:href="#linearGradient5" id="linearGradient2" x1="153.08398" y1="116.19141" x2="182.14844" y2="107.01758" gradientUnits="userSpaceOnUse" gradientTransform="translate(12.016015,-10.358081)"/>
    <linearGradient inkscape:collect="always" xlink:href="#linearGradient5" id="linearGradient4" x1="147.5293" y1="95.201172" x2="172.55078" y2="69.738281" gradientUnits="userSpaceOnUse" gradientTransform="translate(13.337361,-6.3011758)"/>
    <linearGradient inkscape:collect="always" xlink:href="#linearGradient5" id="linearGradient7" x1="131.19531" y1="81" x2="144.85742" y2="48.019531" gradientUnits="userSpaceOnUse" gradientTransform="translate(16.971352,-4.8000023)"/>
    <linearGradient inkscape:collect="always" xlink:href="#linearGradient5" id="linearGradient17" gradientUnits="userSpaceOnUse" gradientTransform="matrix(-1,0,0,1,216.58398,-10.358081)" x1="153.08398" y1="116.19141" x2="182.14844" y2="107.01758"/>
    <linearGradient inkscape:collect="always" xlink:href="#linearGradient5" id="linearGradient18" gradientUnits="userSpaceOnUse" gradientTransform="matrix(-1,0,0,1,215.26263,-6.3011763)" x1="147.5293" y1="95.201172" x2="172.55078" y2="69.738281"/>
    <linearGradient inkscape:collect="always" xlink:href="#linearGradient5" id="linearGradient19" gradientUnits="userSpaceOnUse" gradientTransform="matrix(-1,0,0,1,211.62864,-4.8000028)" x1="131.19531" y1="81" x2="144.85742" y2="48.019531"/>
  </defs>
  <g inkscape:groupmode="layer" id="layer2" inkscape:label="bg"/>
  <g inkscape:label="Layer 1" inkscape:groupmode="layer" id="layer1">
    <path id="rect1" d="m 105.83333,76.199985 h 16.93333 a 33.866665,35.560001 0 0 1 33.86667,35.560005 v 6.77335 a 16.126972,16.933322 0 0 1 -16.12697,16.93332 H 88.093639 A 16.126972,16.933322 0 0 1 71.966667,118.53334 v -6.77335 A 33.866665,35.560001 0 0 1 105.83333,76.199985 Z" style="font-variation-settings:'wght' 800;fill:#ead2d2;fill-opacity:1;fill-rule:nonzero;stroke:#16181d;stroke-width:16.4042;stroke-linecap:round;stroke-dasharray:none;stroke-opacity:1;paint-order:stroke fill markers"/>
    <ellipse style="font-variation-settings:'wght' 800;fill:#16181d;fill-opacity:1;stroke:none;stroke-width:16.4042;stroke-linecap:round;stroke-dasharray:none" id="path2" cx="97.366684" cy="101.60001" rx="8.4666681" ry="8.4666777"/>
    <ellipse style="font-variation-settings:'wght' 800;fill:#16181d;fill-opacity:1;stroke:none;stroke-width:16.4042;stroke-linecap:round;stroke-dasharray:none" id="path2-5" cx="131.23337" cy="101.60001" rx="8.4666653" ry="8.4666777"/>
    <path style="font-variation-settings:'wght' 800;fill:#ead2d2;fill-opacity:1;fill-rule:nonzero;stroke:#16181d;stroke-width:16.4042;stroke-linecap:round;stroke-dasharray:none;stroke-opacity:1;paint-order:stroke fill markers" d="m 97.366669,152.39999 v 1e-5 a 50.800004,50.800004 0 0 0 50.800001,50.8 h 33.86665 a 50.800008,50.800008 0 0 0 50.8,-50.8 l 1e-5,-67.733336 a 7.0140145,7.0140145 0 0 0 -11.97367,-4.959657 l -3.9325,3.932498 A 61.321,61.321 0 0 0 198.96666,127 v 25.4 a 16.933344,16.933344 0 0 1 -16.93334,16.93334 H 148.16667 A 16.933344,16.933344 0 0 1 131.23333,152.4 v -1e-5 a 8.4666539,8.4666539 0 0 0 -8.46665,-8.46665 h -16.93336 a 8.4666539,8.4666539 0 0 0 -8.466651,8.46665 z" id="path6" sodipodi:nodetypes="ccccccccc"/>
    <circle style="font-variation-settings:'wght' 800;fill:#ead2d2;fill-opacity:1;fill-rule:nonzero;stroke:#16181d;stroke-width:16.4042;stroke-linecap:round;stroke-dasharray:none;stroke-opacity:1;paint-order:stroke fill markers" id="path13" cx="76.20002" cy="165.09998" r="12.699999" inkscape:label="path13"/>
    <circle style="font-variation-settings:'wght' 800;fill:#ead2d2;fill-opacity:1;fill-rule:nonzero;stroke:#16181d;stroke-width:16.4042;stroke-linecap:round;stroke-dasharray:none;stroke-opacity:1;paint-order:stroke fill markers" id="path13-6" cx="148.16664" cy="152.39999" r="8.4666615"/>
    <circle style="font-variation-settings:'wght' 800;fill:#ead2d2;fill-opacity:1;fill-rule:nonzero;stroke:#16181d;stroke-width:16.4042;stroke-linecap:round;stroke-dasharray:none;stroke-opacity:1;paint-order:stroke fill markers" id="path13-0" cx="182.03331" cy="152.39999" r="8.4666681"/>
    <circle style="font-variation-settings:'wght' 800;fill:#ead2d2;fill-opacity:1;fill-rule:nonzero;stroke:#16181d;stroke-width:16.4042;stroke-linecap:round;stroke-dasharray:none;stroke-opacity:1;paint-order:stroke fill markers" id="path13-0-3" cx="220.13332" cy="215.89999" r="12.699999"/>
    <path style="color:#000000;fill:url(#linearGradient2);fill-opacity:1;stroke:#16181d;stroke-width:16.4042;stroke-linecap:round;stroke-dasharray:none;stroke-opacity:1;paint-order:stroke fill markers" d="m 190.74843,94.485665 a 5.2916498,5.2916498 0 0 0 -3.95508,0.87891 c -4.80672,3.36976 -10.53208,5.177735 -16.40234,5.177735 a 5.2916498,5.2916498 0 0 0 -5.29102,5.29102 5.2916498,5.2916498 0 0 0 5.29102,5.29101 c 8.04303,0 15.89266,-2.47672 22.47852,-7.09375 a 5.2916498,5.2916498 0 0 0 1.29492,-7.371095 5.2916498,5.2916498 0 0 0 -3.41602,-2.17383 z" id="path15"/>
    <path style="color:#000000;fill:url(#linearGradient4);fill-opacity:1;stroke:#16181d;stroke-width:16.4042;stroke-linecap:round;stroke-dasharray:none;stroke-opacity:1;paint-order:stroke fill markers" d="m 185.88814,63.437106 a 5.2916665,5.2916665 0 0 0 -6.88867,2.925781 c -2.83974,7.028598 -8.35211,12.635686 -15.33008,15.597657 a 5.2916665,5.2916665 0 0 0 -2.80273,6.939453 5.2916665,5.2916665 0 0 0 6.9375,2.802738 c 9.55796,-4.057118 17.11812,-11.749644 21.00781,-21.376957 a 5.2916665,5.2916665 0 0 0 -2.92383,-6.888672 z" id="path15-7"/>
    <path style="color:#000000;fill:url(#linearGradient7);fill-opacity:1;stroke:#16181d;stroke-width:16.4042;stroke-linecap:round;stroke-dasharray:none;stroke-opacity:1;paint-order:stroke fill markers" d="m 161.82877,43.219528 a 5.2916665,5.2916665 0 0 0 -5.29297,5.291016 c 0,7.580586 -3.00885,14.844794 -8.36914,20.205078 a 5.2916665,5.2916665 0 0 0 0,7.484375 5.2916665,5.2916665 0 0 0 7.48438,0 c 7.34216,-7.342167 11.46875,-17.306061 11.46875,-27.689453 a 5.2916665,5.2916665 0 0 0 -5.29102,-5.291016 z" id="path15-7-6"/>
    <path style="color:#000000;fill:url(#linearGradient17);fill-opacity:1;stroke:#16181d;stroke-width:16.4042;stroke-linecap:round;stroke-dasharray:none;stroke-opacity:1;paint-order:stroke fill markers" d="m 37.85156,94.485665 a 5.2916498,5.2916498 0 0 1 3.95508,0.87891 c 4.80672,3.36976 10.53208,5.177725 16.40234,5.177725 a 5.2916498,5.2916498 0 0 1 5.29102,5.29102 5.2916498,5.2916498 0 0 1 -5.29102,5.29101 c -8.04303,0 -15.89266,-2.47672 -22.47852,-7.09375 a 5.2916498,5.2916498 0 0 1 -1.29492,-7.371085 5.2916498,5.2916498 0 0 1 3.41602,-2.17383 z" id="path14"/>
    <path style="color:#000000;fill:url(#linearGradient18);fill-opacity:1;stroke:#16181d;stroke-width:16.4042;stroke-linecap:round;stroke-dasharray:none;stroke-opacity:1;paint-order:stroke fill markers" d="m 42.71185,63.437106 a 5.2916665,5.2916665 0 0 1 6.88867,2.925781 c 2.83974,7.028598 8.35211,12.635686 15.33008,15.597657 a 5.2916665,5.2916665 0 0 1 2.80273,6.939453 5.2916665,5.2916665 0 0 1 -6.9375,2.802738 C 51.23787,87.645617 43.67771,79.953091 39.78802,70.325778 a 5.2916665,5.2916665 0 0 1 2.92383,-6.888672 z" id="path16"/>
    <path style="color:#000000;fill:url(#linearGradient19);fill-opacity:1;stroke:#16181d;stroke-width:16.4042;stroke-linecap:round;stroke-dasharray:none;stroke-opacity:1;paint-order:stroke fill markers" d="m 66.77122,43.219528 a 5.2916665,5.2916665 0 0 1 5.29297,5.291016 c 0,7.580586 3.00885,14.844794 8.36914,20.205078 a 5.2916665,5.2916665 0 0 1 0,7.484375 5.2916665,5.2916665 0 0 1 -7.48438,0 C 65.60679,68.85783 61.4802,58.893936 61.4802,48.510544 a 5.2916665,5.2916665 0 0 1 5.29102,-5.291016 z" id="path17"/>
  </g>
</svg>
